<svg width="33" height="32" viewBox="0 0 33 32" fill="none" xmlns="http://www.w3.org/2000/svg">
<g id="cart">
<path fill-rule="evenodd" clip-rule="evenodd" d="M8.12082 29.223C8.66213 29.223 9.1024 29.6211 9.1024 30.1107C9.1024 30.6018 8.66213 31 8.12082 31C7.5777 31 7.13743 30.6018 7.13743 30.1107C7.13743 29.6211 7.5777 29.223 8.12082 29.223Z" fill="black"/>
<path fill-rule="evenodd" clip-rule="evenodd" d="M26.7633 29.223C27.3064 29.223 27.7467 29.6211 27.7467 30.1107C27.7467 30.6018 27.3064 31 26.7633 31C26.2219 31 25.7816 30.6018 25.7816 30.1107C25.7816 29.6211 26.2219 29.223 26.7633 29.223Z" fill="black"/>
<path d="M5.0666 5.87332C4.52805 5.99572 4.19069 6.53152 4.31309 7.07007C4.43549 7.60862 4.9713 7.94598 5.50985 7.82358L5.0666 5.87332ZM29.0868 22.6231L28.4578 21.8457L28.4576 21.8459L29.0868 22.6231ZM7.41023 22.6231L6.86835 23.4635L6.86857 23.4637L7.41023 22.6231ZM5.28822 4.66401L4.28865 4.63484C4.2881 4.65363 4.28808 4.67243 4.28859 4.69123L5.28822 4.66401ZM1.73401 0.00902313C1.18671 -0.0650014 0.683023 0.318665 0.608999 0.865967C0.534974 1.41327 0.918641 1.91695 1.46594 1.99098L1.73401 0.00902313ZM5.50985 7.82358C10.2347 6.74973 15.5418 6.24542 19.9923 6.35957C22.2183 6.41666 24.2006 6.62784 25.7739 6.98709C27.3901 7.35615 28.4127 7.84646 28.8925 8.34111L30.3281 6.94857C29.4271 6.01978 27.9204 5.42575 26.2191 5.03728C24.4749 4.63899 22.3514 4.41942 20.0435 4.36022C15.4262 4.2418 9.95305 4.76274 5.0666 5.87332L5.50985 7.82358ZM28.8925 8.34111C29.4072 8.87167 29.8641 9.80509 30.1772 11.0609C30.485 12.295 30.6295 13.7427 30.595 15.1983C30.5605 16.6549 30.3477 18.0814 29.9661 19.2772C29.5786 20.4917 29.0499 21.3666 28.4578 21.8457L29.7158 23.4005C30.7378 22.5736 31.4268 21.279 31.8715 19.8851C32.3223 18.4724 32.5564 16.8514 32.5944 15.2457C32.6325 13.6391 32.4752 12.01 32.1178 10.5769C31.7658 9.16554 31.1942 7.84146 30.3281 6.94857L28.8925 8.34111ZM28.4576 21.8459C27.8581 22.3312 26.5932 22.8026 24.7779 23.1445C23.0123 23.4771 20.881 23.66 18.6963 23.6752C16.5124 23.6904 14.3036 23.5378 12.3838 23.2112C10.4378 22.8803 8.89007 22.387 7.95189 21.7825L6.86857 23.4637C8.14984 24.2893 10.0181 24.8376 12.0485 25.1829C14.1051 25.5327 16.4331 25.691 18.7102 25.6752C20.9865 25.6593 23.2404 25.4693 25.1481 25.11C27.006 24.7601 28.7024 24.2209 29.7161 23.4003L28.4576 21.8459ZM7.95211 21.7826C7.03487 21.1912 6.44077 20.2762 6.08125 19.0519C5.71688 17.8111 5.61131 16.3078 5.64786 14.6444C5.68434 12.9846 5.85908 11.2406 6.02065 9.51501C6.17997 7.81344 6.32811 6.11567 6.28785 4.6368L4.28859 4.69123C4.32502 6.02939 4.19055 7.60705 4.02936 9.32856C3.87042 11.0261 3.68675 12.8527 3.64835 14.6005C3.61002 16.3447 3.71308 18.0857 4.16228 19.6154C4.61633 21.1616 5.44074 22.5431 6.86835 23.4635L7.95211 21.7826ZM6.2878 4.69319C6.34853 2.6127 5.09175 1.40591 3.96658 0.77688C3.40918 0.465262 2.85888 0.276338 2.45469 0.165037C2.25053 0.108816 2.07826 0.0709387 1.95378 0.0466445C1.89141 0.0344719 1.84065 0.0256355 1.80346 0.0195664C1.78486 0.01653 1.76961 0.0141805 1.75796 0.0124479C1.75214 0.0115814 1.74721 0.0108686 1.74321 0.0103009C1.74121 0.010017 1.73944 0.00976932 1.7379 0.00955671C1.73714 0.00945044 1.73643 0.00935292 1.73578 0.00926405C1.73545 0.00921965 1.73501 0.00915921 1.73485 0.00913715C1.73442 0.0090791 1.73401 0.00902313 1.59998 1C1.46594 1.99098 1.46556 1.99092 1.46519 1.99087C1.46508 1.99086 1.46473 1.99081 1.46452 1.99078C1.4641 1.99073 1.46373 1.99068 1.46342 1.99063C1.46281 1.99055 1.46241 1.99049 1.46222 1.99046C1.46185 1.99041 1.46235 1.99048 1.46367 1.99068C1.46633 1.99107 1.47229 1.99198 1.48135 1.99346C1.49949 1.99642 1.52986 2.00164 1.57068 2.00961C1.65257 2.02559 1.77492 2.05229 1.92372 2.09327C2.22545 2.17635 2.61447 2.3123 2.99063 2.5226C3.7326 2.93739 4.31995 3.56261 4.28865 4.63484L6.2878 4.69319ZM8.12082 30.223C8.1461 30.223 8.15181 30.2321 8.14385 30.2249C8.13938 30.2209 8.12917 30.2101 8.11958 30.1896C8.10947 30.168 8.1024 30.1403 8.1024 30.1107H10.1024C10.1024 28.9766 9.11747 28.223 8.12082 28.223V30.223ZM8.1024 30.1107C8.1024 30.0819 8.10924 30.0548 8.11923 30.0334C8.1287 30.0131 8.13883 30.0024 8.14339 29.9983C8.15153 29.9909 8.14607 30 8.12082 30V32C9.11872 32 10.1024 31.2452 10.1024 30.1107H8.1024ZM8.12082 30C8.09387 30 8.08792 29.9903 8.09621 29.9978C8.1008 30.002 8.11101 30.0128 8.12054 30.0332C8.13059 30.0547 8.13743 30.0819 8.13743 30.1107H6.13743C6.13743 31.2463 7.12237 32 8.12082 32V30ZM8.13743 30.1107C8.13743 30.1403 8.13037 30.1681 8.12019 30.1898C8.11054 30.2104 8.10025 30.2213 8.09574 30.2253C8.08764 30.2326 8.09384 30.223 8.12082 30.223V28.223C7.12361 28.223 6.13743 28.9755 6.13743 30.1107H8.13743ZM26.7633 30.223C26.7903 30.223 26.7965 30.2327 26.7884 30.2254C26.7839 30.2213 26.7736 30.2104 26.764 30.1899C26.7538 30.1681 26.7467 30.1403 26.7467 30.1107H28.7467C28.7467 28.9754 27.7604 28.223 26.7633 28.223V30.223ZM26.7467 30.1107C26.7467 30.0819 26.7536 30.0547 26.7636 30.0332C26.7732 30.0128 26.7834 30.002 26.788 29.9978C26.7962 29.9903 26.7903 30 26.7633 30V32C27.7617 32 28.7467 31.2464 28.7467 30.1107H26.7467ZM26.7633 30C26.738 30 26.7325 29.9909 26.7406 29.9982C26.7452 30.0024 26.7553 30.0131 26.7648 30.0334C26.7748 30.0547 26.7816 30.0819 26.7816 30.1107H24.7816C24.7816 31.2453 25.7654 32 26.7633 32V30ZM26.7816 30.1107C26.7816 30.1403 26.7745 30.168 26.7644 30.1897C26.7548 30.2101 26.7446 30.2209 26.7401 30.2249C26.7322 30.2321 26.7379 30.223 26.7633 30.223V28.223C25.7667 28.223 24.7816 28.9766 24.7816 30.1107H26.7816Z" fill="white"/>
</g>
</svg>
