<svg width="32" height="32" viewBox="0 0 32 32" xmlns="http://www.w3.org/2000/svg">
<path id="instagram" d="M26.6667 0H5.33333C2.31111 0 0 2.31111 0 5.33333V26.6667C0 29.6889 2.31111 32 5.33333 32H26.6667C29.6889 32 32 29.6889 32 26.6667V5.33333C32 2.31111 29.6889 0 26.6667 0ZM16 10.6667C19.0222 10.6667 21.3333 12.9778 21.3333 16C21.3333 19.0222 19.0222 21.3333 16 21.3333C12.9778 21.3333 10.6667 19.0222 10.6667 16C10.6667 12.9778 12.9778 10.6667 16 10.6667ZM22.7556 7.11111C22.7556 5.86667 23.8222 4.97778 24.8889 4.97778C25.9556 4.97778 27.0222 6.04444 27.0222 7.11111C27.0222 8.17778 26.1333 9.24444 24.8889 9.24444C23.6444 9.24444 22.7556 8.35556 22.7556 7.11111ZM26.6667 28.4444H5.33333C4.26667 28.4444 3.55556 27.7333 3.55556 26.6667V16H7.11111C7.11111 20.9778 11.0222 24.8889 16 24.8889C20.9778 24.8889 24.8889 20.9778 24.8889 16H28.4444V26.6667C28.4444 27.7333 27.7333 28.4444 26.6667 28.4444Z" fill="white"/>
</svg>
