<svg width="32" height="32" viewBox="0 0 32 32" fill="none" xmlns="http://www.w3.org/2000/svg">
<path id="telegram" fill-rule="evenodd" clip-rule="evenodd" d="M2.84444 0C1.27361 0 0 1.27361 0 2.84444V29.1556C0 30.7264 1.27361 32 2.84444 32H29.1556C30.7264 32 32 30.7264 32 29.1556V2.84444C32 1.27361 30.7264 0 29.1556 0H2.84444ZM26.9722 7.63681C27.0208 7.76875 27.0347 7.91111 27.0111 8.04931L23.7875 27.3917C23.7653 27.5243 23.7111 27.6493 23.6278 27.7556C23.5444 27.8611 23.4361 27.9444 23.3139 27.9979C23.2542 28.0243 23.1917 28.0431 23.1278 28.0535C23.0597 28.0653 22.9903 28.0681 22.9208 28.0618C22.7875 28.05 22.6583 28.0042 22.5458 27.9299L12.875 21.4826C12.7819 21.4208 12.7028 21.3403 12.6431 21.2458C12.5833 21.1514 12.5431 21.0458 12.5264 20.9361C12.5097 20.8257 12.5153 20.7125 12.5444 20.6049C12.5597 20.5438 12.5833 20.4847 12.6139 20.4292C12.6361 20.3868 12.6625 20.3465 12.6931 20.309L15.8958 16.3021L10.5444 19.8708C10.5097 19.8938 10.4736 19.9139 10.4361 19.9312C10.3458 19.9736 10.2472 19.9986 10.1472 20.0042C10.0056 20.0132 9.86389 19.984 9.7375 19.9208L3.28889 16.6972C3.14861 16.6264 3.03056 16.5153 2.95139 16.3785C2.91111 16.3083 2.88194 16.2326 2.86389 16.1542C2.84722 16.0799 2.84167 16.0035 2.84583 15.9271C2.85556 15.7694 2.91111 15.6181 3.00556 15.4924C3.06111 15.4188 3.12778 15.3556 3.20417 15.3056C3.25833 15.2694 3.31667 15.2396 3.37917 15.2174L25.9458 7.15764C26.0778 7.11042 26.2208 7.09931 26.3583 7.12361C26.4458 7.13958 26.5306 7.16944 26.6083 7.2125C26.6528 7.2375 26.6944 7.26597 26.7333 7.29861C26.7917 7.34722 26.8431 7.40417 26.8847 7.46667C26.9208 7.51944 26.95 7.57639 26.9722 7.63681Z" fill="white"/>
</svg>
