<svg width="32" height="32" viewBox="0 0 32 32" fill="none" xmlns="http://www.w3.org/2000/svg">
<path id="tiktok" fill-rule="evenodd" clip-rule="evenodd" d="M32 2.84444C32 1.2735 30.7265 0 29.1556 0H2.84444C1.2735 0 0 1.2735 0 2.84444V29.1556C0 30.7265 1.2735 32 2.84444 32H29.1556C30.7265 32 32 30.7265 32 29.1556V2.84444ZM25.2897 7.17956C25.4708 7.29748 25.6577 7.40625 25.8497 7.50547C26.0609 7.61082 26.2714 7.70377 26.4782 7.78519C27.723 8.27537 28.9197 9.42057 28.9197 10.7584C28.9197 12.0369 27.8488 13.0756 26.5922 12.8404C26.3666 12.7981 26.1432 12.7494 25.932 12.6934C24.2142 12.2338 23.0936 11.5359 23.0242 11.492C23.0219 11.4906 23.023 11.4914 23.0207 11.4898C22.6495 11.2443 22.1722 11.4985 22.1722 11.9435V20.9537C22.1722 21.5107 22.0247 22.9044 21.5826 24.0664C21.2009 25.0455 20.6575 25.9535 19.9752 26.7526C19.955 26.7763 19.9352 26.8 19.9149 26.8237C19.7281 27.0431 18.6709 28.2267 16.9393 29.0469C15.343 29.8034 13.9229 29.8449 13.3588 29.8613C13.3129 29.8627 13.2727 29.8639 13.2384 29.8652C13.2386 29.8652 13.2382 29.8652 13.2384 29.8652C13.2319 29.8655 10.6135 29.9687 8.25165 28.364C8.25195 28.3643 8.25131 28.3638 8.25165 28.364L8.24395 28.3565C8.24222 28.3548 8.23927 28.356 8.23927 28.3584C8.23927 28.3607 8.23679 28.362 8.23497 28.3607C7.43716 27.8034 6.72564 27.1317 6.12323 26.3673C5.37885 25.4179 4.92053 24.2925 4.79902 23.9539C4.79765 23.9501 4.79708 23.9464 4.79708 23.9424C4.79708 23.9386 4.79653 23.935 4.79532 23.9314C4.6062 23.3647 4.21359 22.0056 4.27266 20.6936C4.36688 18.3749 5.14491 16.9462 5.35112 16.5907C5.89301 15.6157 6.60088 14.7428 7.44287 14.0112C8.4038 13.2057 9.52124 12.608 10.7247 12.256C11.3051 12.0862 11.8994 11.9753 12.4987 11.924C13.6041 11.8294 14.4341 12.7968 14.4328 13.9063L14.4307 15.6498C14.43 16.2866 13.7973 16.7382 13.1605 16.7388C10.8845 16.7388 9.03983 18.5947 9.03983 20.8867C9.03983 23.1788 10.8845 25.0347 13.1605 25.0347C13.8692 25.0356 14.5658 24.8518 15.1817 24.5014C15.7727 24.1656 16.2722 23.6897 16.6361 23.1157C17 22.5416 17.2173 21.8868 17.2688 21.2091C17.2688 21.202 17.2696 21.1949 17.2704 21.1879C17.2717 21.1772 17.2717 21.1666 17.2717 21.1564C17.2723 21.1456 17.273 21.1352 17.2737 21.1252C17.2751 21.1044 17.2765 21.0847 17.2765 21.0639C17.2871 20.8162 17.2871 20.5656 17.2871 20.3119V4.26667C17.2871 2.69572 18.5606 1.42222 20.1316 1.42222H22.1722C22.1645 1.42222 22.1137 1.88907 22.2363 2.61091C22.2366 2.61244 22.2354 2.61387 22.2338 2.61387C22.2323 2.61387 22.2311 2.61522 22.2314 2.61675C22.3793 3.48827 22.7802 4.73185 23.8515 5.9577C24.2802 6.42117 24.763 6.83141 25.2897 7.17956Z" fill="white"/>
</svg>
